<svg width="72" height="72" viewBox="0 0 72 72" fill="none" xmlns="http://www.w3.org/2000/svg">
<g clip-path="url(#clip0)">
<circle cx="36" cy="36" r="34.5" stroke="white" stroke-width="3"/>
<path d="M6.02539 44.0312H10.8682V26.8682H5.74707V23.8994H20.9434C22.3659 23.8994 23.6462 23.9242 24.7842 23.9736C25.9346 24.0231 26.9736 24.1344 27.9014 24.3076C28.9899 24.5179 29.9115 24.8086 30.666 25.1797C31.4329 25.5508 32.0576 26.0023 32.54 26.5342C33.0225 27.0537 33.3688 27.6475 33.5791 28.3154C33.8018 28.971 33.9131 29.6885 33.9131 30.4678C33.9131 31.8903 33.4678 33.1273 32.5771 34.1787C31.6865 35.2301 30.3444 36.0342 28.5508 36.5908C28.3281 36.665 28.0931 36.7331 27.8457 36.7949C27.6107 36.8444 27.3695 36.9001 27.1221 36.9619C27.7777 37.3083 28.4333 37.7474 29.0889 38.2793C29.7445 38.8112 30.3506 39.3926 30.9072 40.0234C31.4639 40.6543 31.9463 41.3161 32.3545 42.0088C32.7751 42.6891 33.0719 43.3633 33.2451 44.0312H36.9932V47H23.8936V44.0312H28.3096C28.0993 43.3633 27.7715 42.6768 27.3262 41.9717C26.8809 41.2666 26.3428 40.6048 25.7119 39.9863C25.0811 39.3678 24.3636 38.8298 23.5596 38.3721C22.7679 37.9144 21.9206 37.6051 21.0176 37.4443H15.043V44.0312H19.5703V47H6.02539V44.0312ZM29.9609 37.2959C30.7897 37.0485 31.5319 36.7021 32.1875 36.2568C32.8431 35.8115 33.3936 35.292 33.8389 34.6982C34.2965 34.1045 34.6429 33.4489 34.8779 32.7314C35.1253 32.014 35.249 31.2656 35.249 30.4863C35.249 29.9421 35.1934 29.4163 35.082 28.9092C34.9707 28.402 34.779 27.9196 34.5068 27.4619C34.2347 26.9919 33.8698 26.5404 33.4121 26.1074C32.9544 25.6745 32.3854 25.2539 31.7051 24.8457C32.472 25.1302 33.1276 25.4766 33.6719 25.8848C34.2285 26.2806 34.68 26.7259 35.0264 27.2207C35.3851 27.7155 35.6449 28.2412 35.8057 28.7979C35.9788 29.3421 36.0654 29.9049 36.0654 30.4863C36.0654 31.2038 35.9665 31.9027 35.7686 32.583C35.583 33.2633 35.2923 33.9128 34.8965 34.5312C34.513 35.1374 34.0182 35.694 33.4121 36.2012C32.806 36.7083 32.0947 37.1413 31.2783 37.5C31.6494 37.7969 32.0143 38.168 32.373 38.6133C32.7441 39.0462 33.0905 39.5163 33.4121 40.0234C33.7337 40.5182 34.0244 41.0192 34.2842 41.5264C34.5439 42.0212 34.748 42.4788 34.8965 42.8994H34.0244C33.8389 42.417 33.6038 41.9098 33.3193 41.3779C33.0472 40.8337 32.7318 40.3079 32.373 39.8008C32.0267 39.2936 31.6494 38.8236 31.2412 38.3906C30.833 37.9453 30.4062 37.5804 29.9609 37.2959ZM21.7412 34.4756C23.2256 34.4756 24.4564 34.3952 25.4336 34.2344C26.4108 34.0612 27.1901 33.8138 27.7715 33.4922C28.3652 33.1582 28.7796 32.75 29.0146 32.2676C29.262 31.7852 29.3857 31.2347 29.3857 30.6162C29.3857 29.8493 29.1136 29.1628 28.5693 28.5566C28.0251 27.9382 27.1592 27.4805 25.9717 27.1836C25.415 27.0475 24.7842 26.9609 24.0791 26.9238C23.374 26.8867 22.5947 26.8682 21.7412 26.8682H15.043V34.4756H21.7412ZM16.3789 28.167H21.7412C22.7555 28.167 23.6029 28.1917 24.2832 28.2412C24.9635 28.2783 25.5387 28.3525 26.0088 28.4639C26.4788 28.5752 26.8685 28.7236 27.1777 28.9092C27.487 29.0824 27.7715 29.305 28.0312 29.5771C27.7839 29.4658 27.487 29.3669 27.1406 29.2803C26.8066 29.1937 26.3923 29.1195 25.8975 29.0576C25.4027 28.9958 24.8151 28.9525 24.1348 28.9277C23.4668 28.8906 22.6689 28.8721 21.7412 28.8721H17.1211V33.3623H16.3789V28.167ZM6.74902 28.167H9.69922V28.8721H6.74902V28.167ZM16.3789 38.7432H18.624C19.8115 38.7432 20.863 38.8421 21.7783 39.04C22.7061 39.2256 23.3802 39.5534 23.8008 40.0234C23.4544 39.9245 23.1081 39.8379 22.7617 39.7637C22.4277 39.6895 22.0443 39.6338 21.6113 39.5967C21.1908 39.5472 20.696 39.5101 20.127 39.4854C19.5703 39.4606 18.8962 39.4482 18.1045 39.4482H17.1211V42.918H16.3789V38.7432ZM38.3291 48.2988V45.0703H39.0713V49.0039H24.6914V48.2988H38.3291ZM20.9434 48.2988V45.0703H21.6855V49.0039H7.21289V48.2988H20.9434Z" fill="white"/>
<path d="M36.7676 35.459C36.7676 34.4323 36.8975 33.418 37.1572 32.416C37.4294 31.4141 37.8314 30.4616 38.3633 29.5586C38.9076 28.6556 39.5817 27.8206 40.3857 27.0537C41.1898 26.2744 42.1299 25.6064 43.2061 25.0498C44.2822 24.4808 45.4945 24.0417 46.8428 23.7324C48.2035 23.4108 49.694 23.25 51.3145 23.25C52.1803 23.25 53.04 23.318 53.8936 23.4541C54.7471 23.5902 55.5635 23.7819 56.3428 24.0293C57.1344 24.2643 57.8766 24.555 58.5693 24.9014C59.2744 25.2477 59.8991 25.6312 60.4434 26.0518V23.8994H64.6553V30.5791H60.4434C60.0475 29.9482 59.528 29.3669 58.8848 28.835C58.2415 28.2907 57.5117 27.8268 56.6953 27.4434C55.8789 27.0599 54.9883 26.763 54.0234 26.5527C53.0586 26.3301 52.0566 26.2188 51.0176 26.2188C49.3848 26.2188 47.9622 26.4785 46.75 26.998C45.5501 27.5176 44.5544 28.2103 43.7627 29.0762C42.971 29.9297 42.3773 30.9131 41.9814 32.0264C41.598 33.1273 41.4062 34.2715 41.4062 35.459C41.4062 36.7949 41.6536 38.0257 42.1484 39.1514C42.6432 40.2646 43.3298 41.2233 44.208 42.0273C45.0986 42.8314 46.1562 43.4622 47.3809 43.9199C48.6055 44.3652 49.9538 44.5879 51.4258 44.5879C52.7617 44.5879 53.974 44.458 55.0625 44.1982C56.151 43.9385 57.1221 43.5674 57.9756 43.085C58.8291 42.5902 59.5651 41.9902 60.1836 41.2852C60.8145 40.5801 61.3402 39.7884 61.7607 38.9102L64.6182 40.8398C63.4678 43.0417 61.7855 44.7116 59.5713 45.8496C57.3695 46.9876 54.5986 47.5566 51.2588 47.5566C49.1559 47.5566 47.2201 47.2474 45.4512 46.6289C43.6823 46.0104 42.1546 45.1569 40.8682 44.0684C39.5817 42.9798 38.5736 41.6995 37.8438 40.2275C37.1263 38.7555 36.7676 37.166 36.7676 35.459ZM61.5566 31.8779H65.9912V24.8457H66.7334V32.583H61.5566V31.8779ZM42.7422 35.4404C42.7422 34.29 42.9463 33.2324 43.3545 32.2676C43.7627 31.3027 44.3317 30.4678 45.0615 29.7627C45.8037 29.0576 46.682 28.5072 47.6963 28.1113C48.723 27.7155 49.8548 27.5176 51.0918 27.5176C52.7122 27.5176 54.1348 27.7712 55.3594 28.2783C56.5964 28.7731 57.5859 29.4844 58.3281 30.4121C57.252 29.6576 56.1077 29.1071 54.8955 28.7607C53.6956 28.402 52.403 28.2227 51.0176 28.2227C49.8424 28.2227 48.7848 28.4144 47.8447 28.7979C46.917 29.1813 46.1253 29.7008 45.4697 30.3564C44.8265 30.9997 44.3317 31.7542 43.9854 32.6201C43.6514 33.4736 43.4844 34.3766 43.4844 35.3291C43.4844 36.2568 43.6081 37.1227 43.8555 37.9268C44.1152 38.7184 44.5173 39.4482 45.0615 40.1162C45.6182 40.7842 46.3356 41.3903 47.2139 41.9346C48.0921 42.4788 49.1621 42.9551 50.4238 43.3633C49.2611 43.2025 48.2035 42.8994 47.251 42.4541C46.3109 42.0088 45.5068 41.446 44.8389 40.7656C44.1709 40.0853 43.6514 39.2998 43.2803 38.4092C42.9215 37.5062 42.7422 36.5166 42.7422 35.4404ZM41.2949 46.1094C41.8887 46.5176 42.5752 46.8887 43.3545 47.2227C44.1462 47.569 44.9749 47.8597 45.8408 48.0947C46.7191 48.3421 47.6221 48.5277 48.5498 48.6514C49.4899 48.7874 50.4053 48.8555 51.2959 48.8555C52.8792 48.8555 54.3822 48.7194 55.8047 48.4473C57.2396 48.1751 58.5508 47.7731 59.7383 47.2412C60.9382 46.7217 61.9958 46.0785 62.9111 45.3115C63.8265 44.5322 64.5625 43.6478 65.1191 42.6582L65.7686 43.0479C65.1995 44.0745 64.445 44.9961 63.5049 45.8125C62.5648 46.6165 61.4701 47.2969 60.2207 47.8535C58.9837 48.4102 57.6045 48.8307 56.083 49.1152C54.5739 49.4121 52.9658 49.5605 51.2588 49.5605C50.2816 49.5605 49.3105 49.4863 48.3457 49.3379C47.3809 49.2018 46.4593 48.9854 45.5811 48.6885C44.7152 48.404 43.9111 48.0452 43.1689 47.6123C42.4391 47.1917 41.8145 46.6908 41.2949 46.1094Z" fill="white"/>
</g>
<defs>
<clipPath id="clip0">
<rect width="72" height="72" fill="white"/>
</clipPath>
</defs>
</svg>
