<?xml version="1.0" encoding="UTF-8"?>
<!DOCTYPE svg PUBLIC "-//W3C//DTD SVG 1.1//EN" "http://www.w3.org/Graphics/SVG/1.1/DTD/svg11.dtd">
<!-- Creator: CorelDRAW 2019 (64-Bit) -->
<svg xmlns="http://www.w3.org/2000/svg" xml:space="preserve" width="100%" height="100%" version="1.1" style="shape-rendering:geometricPrecision; text-rendering:geometricPrecision; image-rendering:optimizeQuality; fill-rule:evenodd; clip-rule:evenodd"
viewBox="0 0 1006.67 1384.38"
 xmlns:xlink="http://www.w3.org/1999/xlink"
 xmlns:xodm="http://www.corel.com/coreldraw/odm/2003">
 <defs>
  <style type="text/css">
   <![CDATA[
    .fil0 {fill:white}
   ]]>
  </style>
 </defs>
 <g id="Слой_x0020_1">
  <metadata id="CorelCorpID_0Corel-Layer"/>
  <path class="fil0" d="M457.55 0l227.9 0c4.66,0 9.26,1.09 13.43,3.16 4.18,2.08 7.81,5.09 10.63,8.8 2.82,3.72 4.74,8.03 5.61,12.61 0.88,4.58 0.68,9.3 -0.57,13.79l-179.03 610.13 168.01 -51.33 -35.98 122.15 -169.69 49.39 -110.07 371.65 588.79 0c4.66,0.03 9.26,1.13 13.43,3.23 4.17,2.1 7.8,5.13 10.6,8.86 2.8,3.73 4.7,8.06 5.55,12.65 0.85,4.59 0.62,9.31 -0.65,13.8l-51.33 176.39c-2.46,8.39 -7.57,15.76 -14.57,21.01 -6.99,5.24 -15.5,8.09 -24.24,8.09l-899.23 0 151.96 -513.46 -168.1 51.15 37.04 -120.03 168.45 -51.16 213.61 -721.43c2.34,-8.43 7.37,-15.87 14.33,-21.19 6.96,-5.32 15.46,-8.22 24.21,-8.26l-0.09 0z"/>
 </g>
</svg>
