<svg xmlns="http://www.w3.org/2000/svg" viewBox="0 0 93770.7 19601.4" shape-rendering="geometricPrecision" text-rendering="geometricPrecision" image-rendering="optimizeQuality" fill-rule="evenodd" clip-rule="evenodd"><defs><style>.fil1{fill:#65e496}</style></defs><g id="Слой_x0020_1"><g id="_1908413573712"><path d="M29809.28 16100.96V2066.67l5266.26-.01c1071.56 0 1930.66 140.23 2580.75 424.66 646.91 284.16 1153.32 721.78 1518.97 1313.13 369.36 588.17 552.19 1205.44 552.19 1852.35 0 597.96-163.25 1163.11-486.83 1692.28-323.32 529.17-813.33 957.26-1470.03 1283.76 849.31 248.44 1502.83 673.1 1956.86 1274.23 457.46 597.69 686.06 1306.78 686.06 2123.28 0 660.14-140.49 1270.79-418.04 1836.21-277.81 565.15-620.71 999.6-1029.23 1306.51-408.25 304.01-921.28 535.78-1535.38 692.68-617.54 156.9-1372.13 235.21-2267.21 235.21h-5354.37zm1862.14-8134.35h3034.77c823.38 0 1414.73-55.56 1770.86-163.51 473.6-140.49 829.73-375.71 1068.12-702.2 238.39-326.76 359.3-735.28 359.3-1228.46 0-467.25-110.86-878.68-336.29-1231.64-222.25-356.13-542.4-601.13-957.26-731.84-414.87-130.7-1127.13-195.79-2133.34-195.79h-2806.16v4253.44zm0 6487.85h3495.41c601.13 0 1022.61-22.75 1267.62-68.53 424.66-75.14 783.96-202.67 1071.56-382.32 287.6-179.65 522.82-441.06 708.82-783.96 186.27-343.16 277.81-738.45 277.81-1185.86 0-525.99-133.88-980.02-405.08-1368.95-268.02-388.67-640.29-659.87-1117.34-816.5-473.6-156.9-1159.67-235.21-2051.58-235.21l-3247.22-.02v4841.35zm20482.97-12387.8h1862.14v8104.98c0 1411.29-160.07 2531.8-476.78 3361.53-320.41 826.56-895.35 1502.83-1725.08 2022.21-832.91 519.38-1920.88 780.79-3273.43 780.79-1309.95 0-2384.69-225.43-3217.86-679.45-836.08-454.03-1430.87-1107.55-1787-1966.65-355.86-859.37-535.52-2032-535.52-3518.43V2066.66h1861.88v8101.81c0 1218.41 114.56 2120.11 339.99 2695.05 225.43 578.11 610.66 1025.79 1162.84 1336.15 548.75 313.53 1221.85 470.43 2015.6 470.43 1359.16 0 2329.39-310.36 2907.51-927.89 578.38-620.71 865.72-1809.75 865.72-3573.73V2066.67l-.01-.01zm4883.94 14034.3V2066.67l1862.14-.01v6958.28l6971.51-6958.28h2515.39l-5886.71 5690.66 6141.51 8343.64h-2450.05l-4995.07-7082.63-2296.58 2221.44v4861.19h-1862.14z" fill="#fefefe"/><path class="fil1" d="M70229.93 16100.96V2066.67l10133.54-.01v1646.5l-8271.67.01v4312.18h7742.5v1646.5h-7742.5v4782.61h8605.05v1646.5H70229.93zm13073.85 0V2066.67l10133.55-.01v1646.5l-8271.67.01v4312.18h7742.5v1646.5h-7742.5v4782.61h8605.04v1646.5H83303.78z"/><g data-name="logo icon"><path class="fil1" data-name="Rectangle 10 copy 3" d="M19601.39 19601.4L0 .01 19601.39 0z"/><path fill="#44444f" d="M19601.39 0L0 19601.39V0z"/></g></g></g></svg>