<svg width="395" height="490" viewBox="0 0 395 490" fill="none" xmlns="http://www.w3.org/2000/svg">
<path d="M240.4 392.1V415.1C240.1 415.1 239.7 415.2 239.4 415.2H50.2C49.8 415.2 49.5 415.1 49.2 415.1V74.9C49.5 74.9 49.9 74.8 50.2 74.8H239.5C239.8 74.8 240.1 74.9 240.4 74.9V97.7C247.7 96.8 255.1 96.3 262.6 96.3C271.5 96.3 280.2 97 288.7 98.2V71V54.9C288.7 24.7 264.8 0 235.6 0H54C24.8 0 0.899994 24.7 0.899994 54.9V71V425.2V434.9C0.899994 465.1 24.8 489.8 54 489.8H235.5C264.7 489.8 288.6 465.1 288.6 434.9V425.2V391.7C280.1 392.9 271.4 393.6 262.5 393.6C255.1 393.5 247.7 393 240.4 392.1ZM167.7 466.8H116.5C108.9 466.8 102.7 460.4 102.7 452.5C102.7 444.7 108.9 438.2 116.5 438.2H167.7C175.3 438.2 181.5 444.6 181.5 452.5C181.5 460.3 175.2 466.8 167.7 466.8Z" fill="white"/>
<path d="M262.6 128.9C189.5 128.9 130.3 180.8 130.3 244.9C130.3 272.5 141.3 297.9 159.7 317.8C156.3 327 150.1 337.4 138.8 344.8C136 346.7 136.8 351 140.2 351.4C151.9 353 172.1 353.4 190.7 342.2C211.4 354 236.1 360.8 262.6 360.8C335.7 360.8 394.9 308.9 394.9 244.8C394.9 180.7 335.7 128.9 262.6 128.9ZM260.7 181.7C268.8 181.7 275.4 188.3 275.4 196.4C275.4 204.5 268.8 211.1 260.7 211.1C252.6 211.1 246 204.5 246 196.4C246 188.3 252.6 181.7 260.7 181.7ZM282.8 301.5H275.4H249.8H242.4V281.8H249.8V241.9H242.5V222.2H249.8H271.8H275.5V281.8H282.9V301.5H282.8Z" fill="white"/>
</svg>
