<svg width="113" height="113" viewBox="0 0 113 113" fill="none" xmlns="http://www.w3.org/2000/svg">
<path fill-rule="evenodd" clip-rule="evenodd" d="M112.196 56.098C112.196 87.0801 87.0801 112.196 56.098 112.196C25.1159 112.196 0 87.0801 0 56.098C0 25.1159 25.1159 0 56.098 0C87.0801 0 112.196 25.1159 112.196 56.098ZM58.382 80.702H53.979C53.979 80.702 44.264 81.287 35.709 72.38C26.379 62.665 18.139 43.387 18.139 43.387C18.139 43.387 17.664 42.123 18.18 41.512C18.76 40.825 20.34 40.781 20.34 40.781L30.865 40.712C30.865 40.712 31.857 40.878 32.567 41.399C33.152 41.829 33.48 42.633 33.48 42.633C33.48 42.633 35.181 46.935 37.434 50.827C41.831 58.425 43.879 60.087 45.372 59.273C47.547 58.086 46.895 48.532 46.895 48.532C46.895 48.532 46.935 45.064 45.8 43.52C44.921 42.323 43.263 41.974 42.531 41.876C41.939 41.797 42.911 40.422 44.171 39.805C46.065 38.877 49.41 38.824 53.362 38.865C56.441 38.896 57.327 39.088 58.531 39.379C61.3243 40.0535 61.2372 42.2147 61.0493 46.8777C60.9932 48.2711 60.928 49.8878 60.928 51.755C60.928 52.1751 60.9158 52.6229 60.9032 53.0836C60.8379 55.4717 60.7632 58.206 62.335 59.222C63.141 59.742 65.113 59.3 70.045 50.925C72.383 46.956 74.136 42.289 74.136 42.289C74.136 42.289 74.519 41.457 75.114 41.1C75.723 40.736 76.544 40.848 76.544 40.848L87.62 40.779C87.62 40.779 90.948 40.382 91.487 41.884C92.052 43.461 90.243 47.143 85.718 53.174C81.4208 58.9016 79.3326 61.0067 79.5289 62.8713C79.6721 64.2307 81.0294 65.4621 83.63 67.876C89.0819 72.9366 90.5351 75.5938 90.8804 76.2253C90.9083 76.2764 90.929 76.3142 90.944 76.339C93.384 80.385 88.238 80.702 88.238 80.702L78.401 80.839C78.401 80.839 76.287 81.258 73.505 79.347C72.0501 78.3484 70.6277 76.7178 69.2725 75.1642C67.2008 72.7891 65.2861 70.5939 63.652 71.112C60.91 71.982 60.996 77.89 60.996 77.89C60.996 77.89 61.016 79.152 60.391 79.824C59.712 80.556 58.382 80.702 58.382 80.702Z" fill="white"/>
</svg>
